{
	"accessors" : 
	[
		{
			"bufferView" : 2,
			"byteOffset" : 0,
			"componentType" : 5126,
			"count" : 9766,
			"max" : 
			[
				1,
				0.835527777671814,
				0.1275297701358795,
				1
			],
			"min" : 
			[
				0.05637409910559654,
				0.1011451631784439,
				0,
				1
			],
			"name" : "accessor_color_m0-PolyPaper17_-143006",
			"type" : "VEC4"
		},
		{
			"bufferView" : 2,
			"byteOffset" : 156256,
			"componentType" : 5126,
			"count" : 3296,
			"max" : 
			[
				1,
				0.3203815817832947,
				0.1275297701358795,
				1
			],
			"min" : 
			[
				0.05637409910559654,
				0.1011451631784439,
				0,
				1
			],
			"name" : "accessor_color_m1-PolyPaper17_-143154",
			"type" : "VEC4"
		},
		{
			"bufferView" : 0,
			"byteOffset" : 0,
			"componentType" : 5123,
			"count" : 12618,
			"max" : 
			[
				9765
			],
			"min" : 
			[
				0
			],
			"name" : "accessor_indices_0_m0-PolyPaper17_-143006",
			"type" : "SCALAR"
		},
		{
			"bufferView" : 0,
			"byteOffset" : 25236,
			"componentType" : 5123,
			"count" : 3972,
			"max" : 
			[
				3295
			],
			"min" : 
			[
				0
			],
			"name" : "accessor_indices_0_m1-PolyPaper17_-143154",
			"type" : "SCALAR"
		},
		{
			"bufferView" : 1,
			"byteOffset" : 117192,
			"componentType" : 5126,
			"count" : 9766,
			"max" : 
			[
				0.999495,
				0.9993449,
				0.9985174
			],
			"min" : 
			[
				-0.999495,
				-0.9993957999999999,
				-0.9999622
			],
			"name" : "accessor_normal_m0-PolyPaper17_-143006",
			"type" : "VEC3"
		},
		{
			"bufferView" : 1,
			"byteOffset" : 273936,
			"componentType" : 5126,
			"count" : 3296,
			"max" : 
			[
				0.9954618,
				0.9984769,
				0.9990308
			],
			"min" : 
			[
				-0.9990468,
				-0.9984769,
				-0.99547
			],
			"name" : "accessor_normal_m1-PolyPaper17_-143154",
			"type" : "VEC3"
		},
		{
			"bufferView" : 1,
			"byteOffset" : 0,
			"componentType" : 5126,
			"count" : 9766,
			"max" : 
			[
				3.229718,
				2.162659,
				0.6464567
			],
			"min" : 
			[
				0.7838423,
				-0.9697424,
				-1.007625
			],
			"name" : "accessor_position_m0-PolyPaper17_-143006",
			"type" : "VEC3"
		},
		{
			"bufferView" : 1,
			"byteOffset" : 234384,
			"componentType" : 5126,
			"count" : 3296,
			"max" : 
			[
				1.840955,
				1.407474,
				0.1895006
			],
			"min" : 
			[
				0.8104603,
				-0.9201424,
				-0.8627372
			],
			"name" : "accessor_position_m1-PolyPaper17_-143154",
			"type" : "VEC3"
		}
	],
	"asset" : 
	{
		"copyright" : "Unknown",
		"generator" : "glTF 1-to-2 Upgrader for Google Blocks",
		"version" : "2.0"
	},
	"bufferViews" : 
	[
		{
			"buffer" : 0,
			"byteLength" : 33180,
			"byteOffset" : 0,
			"name" : "ushortBufferView",
			"target" : 34963
		},
		{
			"buffer" : 0,
			"byteLength" : 313488,
			"byteOffset" : 33180,
			"byteStride" : 12,
			"name" : "vec3BufferView",
			"target" : 34962
		},
		{
			"buffer" : 0,
			"byteLength" : 208992,
			"byteOffset" : 346668,
			"byteStride" : 16,
			"name" : "vec4BufferView",
			"target" : 34962
		}
	],
	"buffers" : 
	[
		{
			"byteLength" : 555660,
			"name" : "model",
			"uri" : "model.bin"
		}
	],
	"materials" : 
	[
		{
			"alphaMode" : "OPAQUE",
			"doubleSided" : false,
			"name" : "BlocksPaper",
			"pbrMetallicRoughness" : 
			{
				"baseColorFactor" : 
				[
					1,
					1,
					1,
					1
				],
				"metallicFactor" : 0,
				"roughnessFactor" : 0.6
			}
		},
		{
			"alphaMode" : "BLEND",
			"doubleSided" : false,
			"name" : "BlocksGlass",
			"pbrMetallicRoughness" : 
			{
				"baseColorFactor" : 
				[
					0.2,
					0.2,
					1,
					0.3
				],
				"metallicFactor" : 1,
				"roughnessFactor" : 0.4
			}
		},
		{
			"alphaMode" : "OPAQUE",
			"doubleSided" : true,
			"name" : "BlocksGem",
			"pbrMetallicRoughness" : 
			{
				"baseColorFactor" : 
				[
					1,
					0.4,
					1,
					1
				],
				"metallicFactor" : 0,
				"roughnessFactor" : 0.1
			}
		}
	],
	"meshes" : 
	[
		{
			"name" : "mesh_m0-PolyPaper17_-143006",
			"primitives" : 
			[
				{
					"attributes" : 
					{
						"COLOR_0" : 0,
						"NORMAL" : 4,
						"POSITION" : 6
					},
					"indices" : 2,
					"material" : 0,
					"mode" : 4
				}
			]
		},
		{
			"name" : "mesh_m1-PolyPaper17_-143154",
			"primitives" : 
			[
				{
					"attributes" : 
					{
						"COLOR_0" : 1,
						"NORMAL" : 5,
						"POSITION" : 7
					},
					"indices" : 3,
					"material" : 0,
					"mode" : 4
				}
			]
		}
	],
	"nodes" : 
	[
		{
			"matrix" : 
			[
				1,
				0,
				0,
				0,
				0,
				1,
				0,
				0,
				0,
				0,
				1,
				0,
				0,
				0,
				0,
				1
			],
			"mesh" : 1,
			"name" : "node_MeshObject-1918727680-PolyPaper17"
		},
		{
			"matrix" : 
			[
				1,
				0,
				0,
				0,
				0,
				1,
				0,
				0,
				0,
				0,
				1,
				0,
				0,
				0,
				0,
				1
			],
			"mesh" : 0,
			"name" : "node_MeshObject1400906560-PolyPaper17"
		}
	],
	"scene" : 0,
	"scenes" : 
	[
		{
			"extras" : {},
			"name" : "defaultScene",
			"nodes" : 
			[
				1,
				0
			]
		}
	]
}